Coordinates
version=1
nRows=6
nColumns=63
inDegrees=yes

Units are S.I. units (second, meters, Newtons, ...)
If the header above contains a line with 'inDegrees', this indicates whether rotational values are in degrees (yes) or radians (no).

endheader
time	pelvis_tilt	pelvis_list	pelvis_rotation	pelvis_tx	pelvis_ty	pelvis_tz	hip_flexion_r	hip_adduction_r	hip_rotation_r	knee_angle_r	knee_angle_r_beta	ankle_angle_r	subtalar_angle_r	mtp_angle_r	hip_flexion_l	hip_adduction_l	hip_rotation_l	knee_angle_l	knee_angle_l_beta	ankle_angle_l	subtalar_angle_l	mtp_angle_l	L5_S1_Flex_Ext	L5_S1_Lat_Bending	L5_S1_axial_rotation	L4_L5_Flex_Ext	L4_L5_Lat_Bending	L4_L5_axial_rotation	L3_L4_Flex_Ext	L3_L4_Lat_Bending	L3_L4_axial_rotation	L2_L3_Flex_Ext	L2_L3_Lat_Bending	L2_L3_axial_rotation	L1_L2_Flex_Ext	L1_L2_Lat_Bending	L1_L2_axial_rotation	L1_T12_Flex_Ext	L1_T12_Lat_Bending	L1_T12_axial_rotation	Abs_r3	Abs_r2	Abs_r1	Abs_t1	Abs_t2	neck_flexion	neck_bending	neck_rotation	arm_flex_r	arm_add_r	arm_rot_r	elbow_flex_r	pro_sup_r	wrist_flex_r	wrist_dev_r	arm_flex_l	arm_add_l	arm_rot_l	elbow_flex_l	pro_sup_l	wrist_flex_l	wrist_dev_l
      0.00000000	      2.86198042	     -5.22022811	     95.21092857	      0.28308359	      0.98419050	      0.37237941	      3.03986360	      5.10488451	    -13.92403015	      7.74648931	      0.13520174	     18.31539102	    -11.09521326	      0.00000000	      6.10306285	     -4.48994958	      5.84035488	     11.12441811	      0.19415772	     27.28941325	     -0.76254086	      0.00000000	      0.08629187	      0.67901457	     -1.07721788	      0.16025263	      0.90308938	     -1.14454400	      0.14176892	      1.65095604	     -1.14454400	      0.09862298	      1.65095604	     -0.94256564	      0.08013063	      1.38464652	     -0.87523953	      0.04930718	      1.05179358	     -0.80791341	      0.61637421	      7.68114867	     -5.99116268	      0.00000000	      0.00000000	     27.35416795	      2.67484305	     -8.57294117	     19.09041532	    -13.28335337	     80.59812246	     44.60931346	     52.00161342	     13.78568543	      9.87343192	     11.27397975	     -2.90901316	     48.72510604	     47.49988853	     73.47344593	      6.60091120	     15.61481341
      0.01666667	      2.94237576	     -5.39382539	     94.58347637	      0.28362183	      0.98417379	      0.37462898	      3.35531146	      5.14296102	    -13.81358124	      7.58714870	      0.13242073	     19.50975388	     -9.01648367	      0.00000000	      6.07398023	     -4.45294001	      6.41397381	     10.95405721	      0.19118436	     26.50406056	     -2.85426547	      0.00000000	      0.07552218	      0.70310773	     -1.19579010	      0.14025223	      0.93513327	     -1.27052698	      0.12407538	      1.70953612	     -1.27052698	      0.08631429	      1.70953612	     -1.04631633	      0.07012989	      1.43377727	     -0.97157945	      0.04315337	      1.08911387	     -0.89684257	      0.53944735	      7.95369521	     -6.65062578	      0.00000000	      0.00000000	     27.27233873	      3.53391766	     -6.65667752	     20.51523711	    -13.59400975	     83.23884292	     46.59700261	     41.39789206	     10.97652315	     10.43654804	     12.28465879	     -4.51568685	     50.00296992	     48.70704554	     75.94623392	      6.94327038	     11.30244945
      0.03333333	      2.88655896	     -5.68511940	     93.55981460	      0.28481022	      0.98401385	      0.37630950	      3.79909119	      5.10391214	    -12.73075353	      7.57636801	      0.13223257	     20.20393040	     -8.24736511	      0.00000000	      6.10639751	     -4.45730808	      5.29200475	     10.75299027	      0.18767508	     26.25667482	     -2.99842871	      0.00000000	      0.08292179	      0.70694346	     -1.17858745	      0.15399405	      0.94023480	     -1.25224916	      0.13623220	      1.71886233	     -1.25224916	      0.09477131	      1.71886233	     -1.03126402	      0.07700117	      1.44159910	     -0.95760230	      0.04738151	      1.09505542	     -0.88394058	      0.59230204	      7.99708581	     -6.55494980	      0.00000000	      0.00000000	     27.24825732	      3.86372370	     -5.42032448	     21.18946963	    -13.70471476	     83.36140688	     47.79918227	     39.94475436	     10.47619255	     10.48545766	     13.18933281	     -5.89772618	     51.61435884	     49.72911614	     77.36479994	      6.25831867	      8.25580907
      0.05000000	      2.98055480	     -5.91336698	     93.18255916	      0.28519385	      0.98375893	      0.37736071	      4.07505218	      5.21741493	    -12.23228538	      7.46828068	      0.13034609	     20.58680474	     -7.97214374	      0.00000000	      6.16163068	     -4.56639004	      4.88460074	     10.49871888	      0.18323721	     26.14427519	     -3.10018678	      0.00000000	      0.08970971	      0.71810556	     -1.25434563	      0.16659991	      0.95508039	     -1.33274223	      0.14738408	      1.74600186	     -1.33274223	      0.10252923	      1.74600186	     -1.09755243	      0.08330444	      1.46436086	     -1.01915583	      0.05126013	      1.11234551	     -0.94075922	      0.64078750	      8.12335371	     -6.97629410	      0.00000000	      0.00000000	     27.29967262	      3.95035638	     -5.27627454	     21.62713868	    -13.84879411	     83.21146014	     48.77407609	     39.33215410	     10.64294039	     10.50393357	     13.49795913	     -6.88191726	     51.94911176	     50.76310968	     77.44446644	      6.30807329	      7.58525396
      0.06666667	      2.80113112	     -6.17131046	     92.07285346	      0.28644664	      0.98366494	      0.37858765	      4.50233860	      5.06845616	    -11.01752273	      7.66709995	      0.13381614	     20.82513101	     -7.93556949	      0.00000000	      6.09722133	     -4.53313222	      3.03085447	     10.09308356	      0.17615754	     26.31577873	     -2.10706805	      0.00000000	      0.09578843	      0.70308311	     -1.19585555	      0.17788870	      0.93510053	     -1.27059652	      0.15737081	      1.70947627	     -1.27059652	      0.10947660	      1.70947627	     -1.04637361	      0.08894914	      1.43372707	     -0.97163264	      0.05473351	      1.08907573	     -0.89689166	      0.68420718	      7.95341673	     -6.65098982	      0.00000000	      0.00000000	     27.29755193	      4.57325911	     -4.18950269	     22.95541709	    -13.77526354	     86.19495744	     49.99207340	     27.20764776	      8.16795248	     12.49375165	     14.16167418	     -7.93249657	     54.06026332	     51.30630631	     75.37262487	      4.26165087	      5.71158708
      0.08333333	      2.65237802	     -6.41451282	     91.24381952	      0.28739629	      0.98349035	      0.37926340	      4.85791347	      4.96065340	     -9.90885831	      7.83797244	      0.13679843	     20.89263251	     -8.32459887	      0.00000000	      6.07752474	     -4.52315221	      1.26901694	      9.71522899	      0.16956273	     26.58739124	     -0.80036047	      0.00000000	      0.10880652	      0.68538978	     -1.11588093	      0.20206459	      0.91156841	     -1.18562349	      0.17875823	      1.66645672	     -1.18562349	      0.12435497	      1.66645672	     -0.97639581	      0.10103773	      1.39764685	     -0.90665325	      0.06217205	      1.06166878	     -0.83691070	      0.77719410	      7.75326632	     -6.20619495	      0.00000000	      0.00000000	     27.36723071	      4.69775228	     -4.13382210	     23.03245526	    -13.68057673	     85.61508909	     50.17919318	     25.87290134	      8.84246529	     14.01937098	     14.48666149	     -8.54183170	     55.30032971	     51.63833795	     73.42883952	      3.38879091	      5.27032948
